<svg version="1.1" xmlns="http://www.w3.org/2000/svg" xmlns:xlink="http://www.w3.org/1999/xlink" width="40.33333" height="59.41667" viewBox="0,0,40.33333,59.41667"><g transform="translate(-222.66667,-153.18333)"><g data-paper-data="{&quot;isPaintingLayer&quot;:true}" fill-rule="nonzero" stroke="#000000" stroke-linejoin="miter" stroke-miterlimit="10" stroke-dasharray="" stroke-dashoffset="0" style="mix-blend-mode: normal"><path d="M223.16667,179.1v-9.33334h39v9.33334z" fill="#828282" stroke-width="1" stroke-linecap="butt"/><path d="M223.5,202.43334v-9.33334h39v9.33334z" fill="#828282" stroke-width="1" stroke-linecap="butt"/><path d="M226.83333,212.1v-57.33333h32v57.33333z" fill="#ff0000" stroke-width="1" stroke-linecap="butt"/><path d="M232.5,181.43333l2.66667,-15.33333h15l3,15.33333z" fill="#ffeaa5" stroke-width="0.5" stroke-linecap="butt"/><path d="M234.83333,203.1l-1.66667,-9h19l-2,9.33333z" fill="#ffeaa5" stroke-width="0.5" stroke-linecap="butt"/><path d="M231.83333,182.76667v9.66667" fill="none" stroke-width="0.5" stroke-linecap="round"/><path d="M252.5,183.1l0.33333,8.66667" fill="none" stroke-width="0.5" stroke-linecap="round"/><path d="M238.83333,155.26667c0,1.01252 -2.23858,1.83333 -5,1.83333c-2.76142,0 -5,-0.82081 -5,-1.83333c0,-1.01252 2.23858,-1.83333 5,-1.83333c2.76142,0 5,0.82081 5,1.83333z" fill="#ffcd2a" stroke-width="0.5" stroke-linecap="butt"/><path d="M256.16667,155.26667c0,1.01252 -2.23858,1.83333 -5,1.83333c-2.76142,0 -5,-0.82081 -5,-1.83333c0,-1.01252 2.23858,-1.83333 5,-1.83333c2.76142,0 5,0.82081 5,1.83333z" fill="#ffcd2a" stroke-width="0.5" stroke-linecap="butt"/></g></g></svg>