<svg version="1.1" xmlns="http://www.w3.org/2000/svg" xmlns:xlink="http://www.w3.org/1999/xlink" width="522" height="402.5" viewBox="0,0,522,402.5"><g transform="translate(20.5,18)"><g data-paper-data="{&quot;isPaintingLayer&quot;:true}" fill-rule="nonzero" stroke-linejoin="miter" stroke-miterlimit="10" stroke-dasharray="" stroke-dashoffset="0" style="mix-blend-mode: normal"><path d="M-20.5,384.30001v-402h522v402z" fill="#5aff00" stroke="none" stroke-width="0" stroke-linecap="butt"/><path d="M108,384.5v-402.5h264v402.5z" fill="#9a9a9a" stroke="none" stroke-width="0" stroke-linecap="butt"/><g fill="none" stroke="#ffffff" stroke-width="6" stroke-linecap="round"><path d="M240.1,89.71v-54.2"/><path d="M240,207.1v-54.2"/><path d="M240,327.1v-54.2"/></g><g fill="none" stroke="#ffffff" stroke-width="6" stroke-linecap="round"><path d="M309.1,88.71v-54.2"/><path d="M309,151.9v54.2"/><path d="M309,271.9v54.2"/></g><g fill="none" stroke="#ffffff" stroke-width="6" stroke-linecap="round"><path d="M175.1,35.51v54.2"/><path d="M175,152.9v54.2"/><path d="M175,272.9v54.2"/></g><path d="M5,140.655c0,-21.26296 17.23704,-38.5 38.5,-38.5c21.26296,0 38.5,17.23704 38.5,38.5c0,21.26296 -15.23704,24.5 -36.5,24.5c-21.26296,0 -40.5,-3.23704 -40.5,-24.5z" fill="#c2c2c2" stroke="none" stroke-width="0" stroke-linecap="butt"/><path d="M47,166.655c0,-14.08326 11.41674,-25.5 25.5,-25.5c14.08326,0 25.5,11.41674 25.5,25.5c0,14.08326 -11.41674,14.5 -25.5,14.5c-14.08326,0 -25.5,-0.41674 -25.5,-14.5z" fill="#7c7c7c" stroke="none" stroke-width="0" stroke-linecap="butt"/></g></g></svg>