<svg version="1.1" xmlns="http://www.w3.org/2000/svg" xmlns:xlink="http://www.w3.org/1999/xlink" width="522" height="402.5" viewBox="0,0,522,402.5"><g transform="translate(20.5,18)"><g data-paper-data="{&quot;isPaintingLayer&quot;:true}" fill-rule="nonzero" stroke-linejoin="miter" stroke-miterlimit="10" stroke-dasharray="" stroke-dashoffset="0" style="mix-blend-mode: normal"><path d="M-20.5,384.30001v-402h522v402z" fill="#5aff00" stroke="none" stroke-width="0" stroke-linecap="butt"/><path d="M108,384.5v-402.5h264v402.5z" fill="#9a9a9a" stroke="none" stroke-width="0" stroke-linecap="butt"/><g fill="none" stroke="#ffffff" stroke-width="6" stroke-linecap="round"><path d="M240.1,89.71v-54.2"/><path d="M240,207.1v-54.2"/><path d="M240,327.1v-54.2"/></g><g fill="none" stroke="#ffffff" stroke-width="6" stroke-linecap="round"><path d="M309.1,88.71v-54.2"/><path d="M309,151.9v54.2"/><path d="M309,271.9v54.2"/></g><g fill="none" stroke="#ffffff" stroke-width="6" stroke-linecap="round"><path d="M175.1,35.51v54.2"/><path d="M175,152.9v54.2"/><path d="M175,272.9v54.2"/></g><path d="M60.13151,178.2756c3.36118,8.47017 -4.94195,19.71275 -18.54555,25.111c-13.60361,5.39826 -27.35627,2.90798 -30.71745,-5.56219c-3.36118,-8.47017 4.94195,-19.71275 18.54556,-25.11101c13.6036,-5.39826 27.35628,-2.90798 30.71745,5.56219z" fill="#0a9a00" stroke="none" stroke-width="0" stroke-linecap="butt"/><path d="M90.13151,167.2756c3.36118,8.47017 -4.94195,19.71275 -18.54556,25.111c-13.60361,5.39826 -27.35627,2.90798 -30.71745,-5.56219c-3.36118,-8.47017 4.94195,-19.71275 18.54556,-25.11101c13.60361,-5.39826 27.35627,-2.90798 30.71746,5.56219z" fill="#0a9a00" stroke="none" stroke-width="0" stroke-linecap="butt"/><path d="M58,164.55001c0,7.1797 -7.16344,13 -16,13c-8.83656,0 -16,-5.8203 -16,-13c0,-7.1797 7.16344,-13 16,-13c8.83656,0 16,5.8203 16,13z" fill="#0a9a00" stroke="none" stroke-width="0" stroke-linecap="butt"/><path d="M432.56728,99.01258c9.39277,22.11215 9.5897,43.18835 0.43984,47.07501c-9.14986,3.88666 -24.18162,-10.88801 -33.57439,-33.00015c-9.39277,-22.11214 -9.5897,-43.18834 -0.43984,-47.07501c9.14986,-3.88667 24.18162,10.88801 33.57439,33.00015z" fill="#0a9a00" stroke="none" stroke-width="0" stroke-linecap="butt"/><path d="M442.13992,134.17333c11.53481,9.45021 16.34583,22.65235 10.74571,29.48779c-5.60012,6.83544 -19.49074,4.71576 -31.02555,-4.73445c-11.53481,-9.45021 -16.34583,-22.65235 -10.74571,-29.48779c5.60012,-6.83544 19.49074,-4.71576 31.02555,4.73445z" fill="#0a9a00" stroke="none" stroke-width="0" stroke-linecap="butt"/><path d="M458,115.05001c0,13.53098 -8.28273,24.5 -18.5,24.5c-10.21727,0 -18.5,-10.96902 -18.5,-24.5c0,-13.53097 8.28273,-24.5 18.5,-24.5c10.21727,0 18.5,10.96903 18.5,24.5z" fill="#0a9a00" stroke="none" stroke-width="0" stroke-linecap="butt"/></g></g></svg>